# AST/ASF file generated using VICON BodyLanguage
# -----------------------------------------------
:version 1.10
:name VICON
:units
  mass 1.0
  length 0.45
  angle deg
:documentation
   .ast/.asf automatically generated from VICON data using
   VICON BodyBuilder and BodyLanguage model FoxedUp or BRILLIANT.MOD
:root
   order TX TY TZ RX RY RZ
   axis XYZ
   position 0 0 0  
   orientation 0 0 0 
:bonedata
  begin
     id 1 
     name lhipjoint
     direction 0.541323 -0.757556 0.364798 
     length 2.47576 
     axis 0 0 0  XYZ
  end
  begin
     id 2 
     name lfemur
     direction 0.34202 -0.939693 0  
     length 7.46493  
     axis 0 0 20  XYZ
    dof rx ry rz
    limits (-160.0 20.0)
           (-70.0 70.0)
           (-60.0 70.0)
  end
  begin
     id 3 
     name ltibia
     direction 0.34202 -0.939693 0   
     length 7.73805   
     axis 0 0 20   XYZ
    dof rx
    limits (-10.0 170.0)
  end
  begin
     id 4 
     name lfoot
     direction 0.107174 -0.294458 0.949636   
     length 2.25864   
     axis -90 7.62852e-016 20   XYZ
    dof rx rz
    limits (-45.0 90.0)
           (-70.0 20.0)
  end
  begin
     id 5 
     name ltoes
     direction 1.53606e-011 -4.21934e-011 1   
     length 1.12451   
     axis -90 7.62852e-016 20   XYZ
    dof rx
    limits (-90.0 20.0)
  end
  begin
     id 6 
     name rhipjoint
     direction -0.524745 -0.766967 0.36933   
     length 2.44538  
     axis 0 0 0  XYZ 
  end
  begin
     id 7 
     name rfemur
     direction -0.34202 -0.939693 0   
     length 7.61604   
     axis 0 0 -20   XYZ
    dof rx ry rz
    limits (-160.0 20.0)
           (-70.0 70.0)
           (-70.0 60.0)
  end
  begin
     id 8 
     name rtibia
     direction -0.34202 -0.939693 0   
     length 7.61056   
     axis 0 0 -20   XYZ
    dof rx
    limits (-10.0 170.0)
 end
 begin
     id 9 
     name rfoot
     direction -0.12616 -0.346623 0.929482   
     length 2.46372  
     axis -90 -7.62852e-016 -20   XYZ
    dof rx rz
    limits (-45.0 90.0)
           (-20.0 70.0)
  end
  begin
     id 10 
     name rtoes
     direction -1.53531e-011 -4.22004e-011 1   
     length 1.21611   
     axis -90 -7.62852e-016 -20   XYZ
    dof rx
    limits (-90.0 20.0)
  end
  begin
     id 11 
     name lowerback
     direction -0.000778023 0.997293 -0.0735223   
     length 2.06139   
     axis 0 0 0   XYZ
    dof rx ry rz
    limits (-20.0 45.0)
           (-30.0 30.0)
           (-30.0 30.0)
  end
  begin
     id 12 
     name upperback
     direction 0.0222598 0.999722 -0.0078355   
     length 2.06383   
     axis 0 0 0   XYZ
    dof rx ry rz
    limits (-20.0 45.0)
           (-30.0 30.0)
           (-30.0 30.0)
  end
  begin
     id 13 
     name thorax
     direction 0.0219654 0.999405 0.0265994   
     length 2.07163   
     axis 0 0 0   XYZ
    dof rx ry rz
    limits (-20.0 45.0)
           (-30.0 30.0)
           (-30.0 30.0)
  end
  begin
     id 14 
     name lowerneck
     direction 0.0213282 0.988147 0.15202   
     length 1.75969   
     axis 0 0 0   XYZ
    dof rx ry rz
    limits (-20.0 45.0)
           (-30.0 30.0)
           (-30.0 30.0)
  end
  begin
     id 15 
     name upperneck
     direction -0.0546456 0.982624 -0.177379   
     length 1.79244   
     axis 0 0 0   XYZ
    dof rx ry rz
    limits (-20.0 45.0)
           (-30.0 30.0)
           (-30.0 30.0)
  end
  begin
     id 16
     name head
     direction -0.0199987 0.996855 -0.076686  
     length 1.80555  
     axis 0 0 0   XYZ
    dof rx ry rz
    limits (-20.0 45.0)
           (-30.0 30.0)
           (-30.0 30.0)
  end
  begin
     id 17 
     name lclavicle
     direction 0.929565 0.363219 -0.063096  
     length 3.55722  
     axis 0 0 0   XYZ
    dof ry rz
    limits (-20.0 10.0)
           (0.0 20.0)
  end
  begin
     id 18 
     name lhumerus
     direction 1 -4.48993e-011 -2.36203e-027   
     length 4.92785   
     axis 180 -30 -90   XYZ
    dof rx ry rz
    limits (-60.0 90.0)
           (-90.0 90.0)
           (-90.0 90.0)
  end
  begin
     id 19
     name lradius
     direction 1 -4.48947e-011 2.02997e-027   
     length 3.44052   
     axis 180 -30 -90   XYZ
    dof rx
    limits (-10.0 170.0)
  end
  begin
     id 20
     name lwrist
     direction 1 -4.48962e-011 1.45991e-027   
     length 1.72026   
     axis 1.49639e-024 90 90   XYZ
    dof ry
    limits (-180.0 0.0)
 end
  begin
     id 21 
     name lhand
     direction 1 -4.48984e-011 2.91906e-027   
     length 0.654326   
     axis -1.863e-015 90 90   XYZ
    dof rx rz
    limits (-90.0 90.0)
           (-45.0 45.0)
  end
  begin
     id 22 
     name lfingers
     direction 1 -4.48961e-011 5.83968e-027   
     length 0.527534   
     axis -3.72598e-015 90 90   XYZ
    dof rx
    limits (0.0 90.0)
  end
  begin
     id 23
     name lthumb
     direction 0.707107 -6.34963e-011 0.707107   
     length 0.757437   
     axis -90 45 -6.68868e-015   XYZ
    dof rx rz
    limits (-45.0 45.0)
           (-45.0 45.0)
  end
  begin
     id 24 
     name rclavicle
     direction -0.902944 0.422599 -0.0781198   
     length 3.54432  
     axis 0 0 0   XYZ 
    dof ry rz
    limits (-10.0 20.0)
           (-20.0 0.0)
  end
  begin
     id 25 
     name rhumerus
     direction -1 -4.48953e-011 -4.75835e-028  
     length 5.09181   
     axis 180 30 90   XYZ
    dof rx ry rz
    limits (-90.0 60.0)
           (-90.0 90.0)
           (-90.0 90.0)
  end
  begin
     id 26 
     name rradius
     direction -1 -4.48986e-011 -3.25889e-027   
     length 3.49865   
     axis 180 30 90   XYZ
    dof rx
    limits (-10.0 170.0)
  end
  begin
     id 27 
     name rwrist
     direction -1 -4.48963e-011 1.45989e-027   
     length 1.74933   
     axis 1.49639e-024 -90 -90   XYZ
    dof ry
    limits (-180.0 0.0)
  end
  begin
     id 28
     name rhand
     direction -1 -4.49003e-011 2.91844e-027   
     length 0.66641   
     axis -1.863e-015 -90 -90   XYZ
    dof rx rz
    limits (-90.0 90.0)
           (-45.0 45.0)
  end
  begin
     id 29
     name rfingers
     direction -1 -4.48973e-011 5.83886e-027   
     length 0.537277   
     axis -3.72598e-015 -90 -90   XYZ
    dof rx
    limits (0.0 90.0)
  end
  begin
     id 30
     name rthumb
     direction -0.707107 -6.34976e-011 0.707107   
     length 0.771425   
     axis -90 -45 6.68868e-015   XYZ
    dof rx rz
    limits (-45.0 45.0)
           (-45.0 45.0)
  end
:hierarchy
  begin
    root lhipjoint rhipjoint lowerback
    lhipjoint lfemur
    lfemur ltibia
    ltibia lfoot
    lfoot ltoes
    rhipjoint rfemur
    rfemur rtibia
    rtibia rfoot
    rfoot rtoes
    lowerback upperback
    upperback thorax
    thorax lowerneck lclavicle rclavicle
    lowerneck upperneck
    upperneck head
    lclavicle lhumerus
    lhumerus lradius
    lradius lwrist
    lwrist lhand lthumb
    lhand lfingers
    rclavicle rhumerus
    rhumerus rradius
    rradius rwrist
    rwrist rhand rthumb
    rhand rfingers
  end

#!OML:ASF H:\LiuWeirdWalks\Patient Classification 1\Patient 1\Session 1\male.ASF
:FULLY-SPECIFIED
:DEGREES
731
root 1.594 17.9767 26.8525 1.19682 5.32923 3.53278
lowerback 16.4848 1.78701 15.1045
upperback -2.63348 6.65488 9.32403
thorax -11.8975 2.48854 0.291227
lowerneck -13.7823 -2.17632 7.60248
upperneck 18.9716 -2.0432 -13.0677
head 7.86311 -1.71827 -5.89823
rclavicle -2.49475e-014 -1.27222e-014
rhumerus -44.8355 -23.0767 -35.0283
rradius 37.7736
rwrist -15.7731
rhand -17.3262 -2.72314
rfingers 7.12502
rthumb 8.92055 -32.5146
lclavicle -2.49475e-014 -1.27222e-014
lhumerus -49.2367 -22.4781 100.563
lradius 52.0442
lwrist 3.55221
lhand -4.60154 -6.16565
lfingers 7.12502
lthumb 21.1762 22.6978
rfemur -3.19722 -8.44722 7.73621
rtibia 41.9331
rfoot -7.98131 -17.8453
rtoes -15.9679
lfemur -18.4292 3.42152 -27.0839
ltibia 23.2688
lfoot 1.09676 12.9803
ltoes -3.00324
732
root 1.64522 17.9775 26.9331 1.00988 5.23539 3.38611
lowerback 16.6031 1.67147 15.0436
upperback -2.48675 6.512 9.49821
thorax -11.8391 2.44255 0.546865
lowerneck -13.8592 -2.00025 7.78809
upperneck 18.9146 -1.80406 -13.2859
head 7.88112 -1.61398 -5.98445
rclavicle 2.44505e-014 -1.01778e-013
rhumerus -44.8399 -23.2427 -35.0155
rradius 37.0955
rwrist -15.42
rhand -17.1654 -2.94953
rfingers 7.12502
rthumb 9.07571 -32.7343
lclavicle 2.44505e-014 -1.01778e-013
lhumerus -48.9458 -21.93 100.368
lradius 51.8413
lwrist 3.5469
lhand -4.8586 -6.09088
lfingers 7.12502
lthumb 20.9293 22.8
rfemur -3.75979 -8.51395 7.55612
rtibia 43.5656
rfoot -6.9371 -17.3401
rtoes -15.6788
lfemur -18.0682 3.46967 -27.0272
ltibia 23.5447
lfoot 0.67121 13.0848
ltoes -3.13962
733
root 1.6957 17.9781 27.0131 0.84331 5.12912 3.27063
lowerback 16.6965 1.57943 14.9765
upperback -2.35239 6.3922 9.64982
thorax -11.7745 2.40633 0.776386
lowerneck -13.926 -1.84332 7.94014
upperneck 18.891 -1.59223 -13.4477
head 7.90715 -1.51952 -6.04904
rclavicle 1.12313e-014 2.8625e-014
rhumerus -44.8892 -23.4082 -34.9714
rradius 36.4118
rwrist -15.0448
rhand -16.9127 -3.10899
rfingers 7.12502
rthumb 9.31962 -32.883
lclavicle 1.12313e-014 2.8625e-014
lhumerus -48.7025 -21.4864 100.218
lradius 51.6599
lwrist 3.52125
lhand -5.0481 -6.01453
lfingers 7.12502
lthumb 20.7472 22.8964
rfemur -4.40318 -8.5609 7.3477
rtibia 45.2633
rfoot -5.79838 -16.8425
rtoes -15.1214
lfemur -17.6858 3.51944 -27.0104
ltibia 23.742
lfoot 0.278768 13.2101
ltoes -3.26589
734
root 1.74583 17.9783 27.0928 0.708759 5.02719 3.26028
lowerback 16.757 1.49757 14.8088
upperback -2.22751 6.2552 9.76919
thorax -11.706 2.36723 1.0284
lowerneck -14.0086 -1.69326 8.05776
upperneck 18.9395 -1.3889 -13.5509
head 7.96064 -1.42676 -6.09181
rclavicle -4.56956e-014 5.40694e-014
rhumerus -44.9291 -23.5686 -34.9296
rradius 35.713
rwrist -14.6216
rhand -16.5746 -3.2355
rfingers 7.12502
rthumb 9.6458 -32.9947
lclavicle -4.56956e-014 5.40694e-014
lhumerus -48.4957 -21.1014 100.088
lradius 51.5099
lwrist 3.50778
lhand -5.18049 -5.92973
lfingers 7.12502
lthumb 20.62 22.995
rfemur -5.13183 -8.62832 7.01258
rtibia 47.0443
rfoot -4.58376 -16.3176
rtoes -14.2907
lfemur -17.2549 3.58992 -27.1263
ltibia 23.7994
lfoot -0.0527409 13.326
ltoes -3.36122
735
root 1.79349 17.9787 27.1721 0.615863 4.92035 3.41005
lowerback 16.7906 1.46701 14.5396
upperback -2.12762 6.15369 9.81293
thorax -11.6449 2.34626 1.24129
lowerneck -14.0756 -1.5945 8.1001
upperneck 19.0328 -1.25192 -13.5721
head 8.02008 -1.36288 -6.10038
rclavicle -5.36719e-015 1.59028e-014
rhumerus -45.1101 -23.7846 -34.8049
rradius 35.0453
rwrist -14.1428
rhand -16.1509 -3.36598
rfingers 7.12502
rthumb 10.0546 -33.1058
lclavicle -5.36719e-015 1.59028e-014
lhumerus -48.3543 -20.9068 100.018
lradius 51.3961
lwrist 3.48673
lhand -5.23017 -5.83652
lfingers 7.12502
lthumb 20.5723 23.0934
rfemur -5.95714 -8.67162 6.52216
rtibia 48.9026
rfoot -3.28594 -15.7969
rtoes -13.1465
lfemur -16.7751 3.69513 -27.4222
ltibia 23.6936
lfoot -0.304774 13.4245
ltoes -3.44352
736
root 1.83973 17.9781 27.2505 0.579993 4.82871 3.79006
lowerback 16.7795 1.49848 14.169
upperback -2.06062 6.09424 9.7386
thorax -11.584 2.3446 1.3661
lowerneck -14.1174 -1.57262 8.04725
upperneck 19.1553 -1.21686 -13.4943
head 8.07405 -1.3442 -6.06769
rclavicle 5.23425e-014 9.54166e-014
rhumerus -45.492 -24.0736 -34.5761
rradius 34.4234
rwrist -13.6248
rhand -15.6838 -3.461
rfingers 7.12502
rthumb 10.5052 -33.1785
lclavicle 5.23425e-014 9.54166e-014
lhumerus -48.284 -20.9636 100.015
lradius 51.3215
lwrist 3.45657
lhand -5.1847 -5.73289
lfingers 7.12502
lthumb 20.6159 23.1923
rfemur -6.86872 -8.7533 5.77068
rtibia 50.8185
rfoot -1.9261 -15.2185
rtoes -11.6565
lfemur -16.2548 3.82466 -27.9838
ltibia 23.4229
lfoot -0.475306 13.49
ltoes -3.50744
737
root 1.88425 17.9764 27.327 0.578571 4.7722 4.30468
lowerback 16.738 1.57361 13.7914
upperback -2.02357 6.07881 9.57395
thorax -11.5252 2.35835 1.38382
lowerneck -14.1372 -1.6217 7.90112
upperneck 19.3095 -1.27215 -13.3365
head 8.12527 -1.36692 -5.99996
rclavicle 1.77415e-014 6.36111e-015
rhumerus -46.0732 -24.4366 -34.2413
rradius 33.8647
rwrist -13.0699
rhand -15.2015 -3.54414
rfingers 7.12502
rthumb 10.9704 -33.2375
lclavicle 1.77415e-014 6.36111e-015
lhumerus -48.2784 -21.2741 100.083
lradius 51.2872
lwrist 3.43247
lhand -5.0484 -5.60895
lfingers 7.12502
lthumb 20.7469 23.302
rfemur -7.82852 -8.89313 4.86846
rtibia 52.7446
rfoot -0.495976 -14.5814
rtoes -9.76666
lfemur -15.7074 3.96662 -28.702
ltibia 23.0358
lfoot -0.59029 13.5114
ltoes -3.56318
738
root 1.92674 17.9741 27.4018 0.592699 4.75138 4.86816
lowerback 16.7017 1.64356 13.379
upperback -2.00167 6.05132 9.38471
thorax -11.4881 2.36614 1.39661
lowerneck -14.1455 -1.67029 7.78313
upperneck 19.432 -1.3295 -13.208
head 8.16328 -1.39091 -5.9458
rclavicle 3.18055e-015 3.49861e-014
rhumerus -46.6828 -24.79 -33.9146
rradius 33.3517
rwrist -12.493
rhand -14.706 -3.65706
rfingers 7.12502
rthumb 11.4483 -33.3245
lclavicle 3.18055e-015 3.49861e-014
lhumerus -48.3172 -21.649 100.158
lradius 51.2976
lwrist 3.43327
lhand -4.88009 -5.49907
lfingers 7.12502
lthumb 20.9086 23.3941
rfemur -8.8063 -9.07427 3.92232
rtibia 54.6311
rfoot 0.982967 -13.9055
rtoes -7.45252
lfemur -15.1544 4.11192 -29.4729
ltibia 22.6004
lfoot -0.68504 13.4931
ltoes -3.60781
739
root 1.96574 17.9728 27.4756 0.572701 4.76611 5.26433
lowerback 16.6924 1.70627 13.1639
upperback -1.99042 6.065 9.21606
thorax -11.4632 2.37999 1.31746
lowerneck -14.1546 -1.74077 7.65603
upperneck 19.5547 -1.41585 -13.0782
head 8.19829 -1.42918 -5.89246
rclavicle 3.65018e-014 6.04305e-014
rhumerus -47.3998 -25.1616 -33.546
rradius 32.9108
rwrist -11.9253
rhand -14.2172 -3.83031
rfingers 7.12502
rthumb 11.9197 -33.471
lclavicle 3.65018e-014 6.04305e-014
lhumerus -48.3934 -22.1409 100.252
lradius 51.3326
lwrist 3.37227
lhand -4.62336 -5.42659
lfingers 7.12502
lthumb 21.1553 23.4392
rfemur -9.74429 -9.25489 3.20661
rtibia 56.4187
rfoot 2.48367 -13.2682
rtoes -4.6842
lfemur -14.6057 4.25189 -30.0416
ltibia 22.2024
lfoot -0.802657 13.4483
ltoes -3.64419
740
root 2.00165 17.9727 27.5473 0.532665 4.82252 5.49788
lowerback 16.7202 1.66538 12.8767
upperback -1.94707 5.94724 9.18129
thorax -11.456 2.34396 1.45914
lowerneck -14.2385 -1.67361 7.71564
upperneck 19.6434 -1.32153 -13.1331
head 8.25326 -1.38813 -5.91983
rclavicle -2.23633e-015 6.36111e-015
rhumerus -47.7675 -25.3827 -33.4171
rradius 32.4737
rwrist -11.3099
rhand -13.7399 -3.96841
rfingers 7.12502
rthumb 12.3799 -33.5818
lclavicle -2.23633e-015 6.36111e-015
lhumerus -48.401 -22.287 100.201
lradius 51.4015
lwrist 3.27042
lhand -4.31394 -5.41658
lfingers 7.12502
lthumb 21.4525 23.4156
rfemur -10.645 -9.44499 2.7193
rtibia 58.0764
rfoot 3.91305 -12.7231
rtoes -1.76265
lfemur -14.1072 4.37411 -30.4132
ltibia 21.9012
lfoot -0.967678 13.382
ltoes -3.66029
